<svg xmlns="http://www.w3.org/2000/svg" viewBox="0 0 583.68 373.75"><defs><style>.cls-1{fill:#fff;}</style></defs><title>Ativo 1</title><g id="Camada_2" data-name="Camada 2"><g id="Layer_1" data-name="Layer 1"><g id="_Grupo_" data-name="&lt;Grupo&gt;"><g id="_Grupo_2" data-name="&lt;Grupo&gt;"><path id="_Caminho_" data-name="&lt;Caminho&gt;" class="cls-1" d="M280.51,197.46c-43.1-8.74-82-4.38-97.49,9.35a40.32,40.32,0,0,1,26.62-2.76c1.24.3,2.45.65,3.64,1,19-5,45.17-5.65,73.28-.89,25.33,4.28,47.7,12.23,63.83,21.75C334.47,214,309.53,203.34,280.51,197.46Z"/><g id="_Grupo_3" data-name="&lt;Grupo&gt;"><path id="_Caminho_2" data-name="&lt;Caminho&gt;" class="cls-1" d="M331.72,215.57s-1,20.2,24.84,18.35C356.56,233.93,353,208.21,331.72,215.57Z"/><g id="_Grupo_4" data-name="&lt;Grupo&gt;"><g id="_Grupo_5" data-name="&lt;Grupo&gt;"><path id="_Caminho_3" data-name="&lt;Caminho&gt;" class="cls-1" d="M332.38,216.23c3.41,2,6.75,4.09,10,6.25,2.7,1.77,5.36,3.61,7.92,5.58a26.88,26.88,0,0,1,5.41,5c0,.05-.39.13-.46,0a26.43,26.43,0,0,0-5.14-4.84c-2.53-2-5.2-3.82-7.89-5.59-3.37-2.23-6.8-4.38-10.29-6.42-.1-.06.32-.12.41-.07Z"/></g><g id="_Grupo_6" data-name="&lt;Grupo&gt;"><path id="_Caminho_4" data-name="&lt;Caminho&gt;" class="cls-1" d="M336,224.4q-.66-1.71-1.22-3.45c-.22-.66-1.2-2.84-.66-3.46.72-.82,2.61-.88,3.58-1a18.28,18.28,0,0,1,6.16.13c.3.07-.08.23-.24.2-1.35-.29-9.35-.89-9.09,1.42a26.41,26.41,0,0,0,1.92,6.1c.06.17-.4.2-.45.07Z"/></g><g id="_Grupo_7" data-name="&lt;Grupo&gt;"><path id="_Caminho_5" data-name="&lt;Caminho&gt;" class="cls-1" d="M340.91,229.42q-.84-2.3-1.58-4.62c-.4-1.26-1.47-3.47-1.08-4.83.25-.87,3.39-.45,3.91-.41,2.56.21,5.48.65,7.56,2.28.23.18-.17.35-.33.23-1.85-1.45-4.36-1.88-6.64-2.14a18.3,18.3,0,0,0-3-.09c-.82,0-1.09.11-1,.94a43.65,43.65,0,0,0,2.64,8.55c.08.22-.38.28-.46.09Z"/></g><g id="_Grupo_8" data-name="&lt;Grupo&gt;"><path id="_Caminho_6" data-name="&lt;Caminho&gt;" class="cls-1" d="M345.53,231.07c-.33-1-2.67-7-1.34-7.46s3.34.35,4.58.67c1.63.43,3.82.9,5.09,2.1.18.17-.28.27-.41.15-1.07-1-2.87-1.41-4.24-1.81-.51-.15-4.44-1.46-4.88-.81-.53.8.48,3.19.7,4,.29,1,.6,2.06.93,3.09.07.21-.4.26-.45.08Z"/></g><g id="_Grupo_9" data-name="&lt;Grupo&gt;"><path id="_Caminho_7" data-name="&lt;Caminho&gt;" class="cls-1" d="M350.17,232.94c-.28-.73-.53-1.48-.76-2.23s-.82-2.25-.34-3c.33-.52,1.76-.07,2.19,0a31.21,31.21,0,0,1,3.17.86c.23.07-.22.18-.33.14-.71-.23-1.43-.43-2.16-.62a16.76,16.76,0,0,0-1.71-.36c-.61-.09-.82,0-.83.61a13.42,13.42,0,0,0,1.22,4.54c.06.15-.41.18-.45.06Z"/></g></g></g><path id="_Caminho_8" data-name="&lt;Caminho&gt;" class="cls-1" d="M343.54,167.38c-100.34.41-188.61,22.06-240.06,54.56,20.25,2.2,40,3.43,59.1,3.75C213.9,202.13,285.4,186.09,365,183.18c75.35-2.76,144.36,6.75,196.39,24.54C508.42,182.68,430.44,167,343.54,167.38Z"/><g id="_Grupo_10" data-name="&lt;Grupo&gt;"><path id="_Caminho_9" data-name="&lt;Caminho&gt;" class="cls-1" d="M507.06,190s6.55,47.07,65.43,31.36C572.49,221.34,552.85,163.58,507.06,190Z"/><g id="_Grupo_11" data-name="&lt;Grupo&gt;"><g id="_Grupo_12" data-name="&lt;Grupo&gt;"><path id="_Caminho_10" data-name="&lt;Caminho&gt;" class="cls-1" d="M508.88,191.2c8.74,3.07,17.38,6.44,25.94,10,7,2.9,14,6,20.74,9.38,5.11,2.57,10.48,5.33,14.71,9.24.11.11-.83.47-1,.29-4-3.75-9.14-6.37-14-8.88-6.72-3.47-13.69-6.5-20.67-9.41-8.76-3.65-17.63-7.1-26.59-10.26-.27-.1.68-.41.91-.33Z"/></g><g id="_Grupo_13" data-name="&lt;Grupo&gt;"><path id="_Caminho_11" data-name="&lt;Caminho&gt;" class="cls-1" d="M520.87,208.44q-2.27-3.65-4.34-7.41c-.79-1.43-4-6-3.05-7.69,1.3-2.2,5.62-3.19,7.81-3.92A42.91,42.91,0,0,1,535.55,187c.72,0-.08.57-.46.56-3.25-.07-22,2.08-20.33,7.3,1.47,4.66,4.56,9.1,7.13,13.23.22.36-.84.65-1,.35Z"/></g><g id="_Grupo_14" data-name="&lt;Grupo&gt;"><path id="_Caminho_12" data-name="&lt;Caminho&gt;" class="cls-1" d="M534.38,217.86q-2.95-4.93-5.69-10c-1.48-2.72-4.94-7.35-4.64-10.66.2-2.11,7.61-2.55,8.83-2.68,6-.65,12.93-.92,18.45,1.91.61.31-.23.89-.66.67-4.92-2.52-10.89-2.4-16.27-2a42.76,42.76,0,0,0-7.06,1.14c-1.87.47-2.47.75-1.84,2.6,2.22,6.51,6.36,12.68,9.88,18.56.28.48-.76.82-1,.41Z"/></g><g id="_Grupo_15" data-name="&lt;Grupo&gt;"><path id="_Caminho_13" data-name="&lt;Caminho&gt;" class="cls-1" d="M545.77,219.62c-1.2-2.16-9.25-14.94-6.38-16.62s7.86-.67,10.87-.48c4,.26,9.21.38,12.68,2.58.48.3-.52.75-.87.53-2.92-1.86-7.24-2-10.59-2.29-1.25-.12-10.89-1.4-11.61.29-.88,2.09,2.53,7.15,3.39,8.9q1.68,3.39,3.52,6.71c.25.45-.8.76-1,.38Z"/></g><g id="_Grupo_16" data-name="&lt;Grupo&gt;"><path id="_Caminho_14" data-name="&lt;Caminho&gt;" class="cls-1" d="M557.33,221.9c-1-1.57-1.88-3.19-2.73-4.82s-2.89-4.82-2.11-6.8c.53-1.35,4-.94,5.06-.93a73.52,73.52,0,0,1,7.7.59c.57.07-.42.51-.71.48-1.74-.21-3.5-.36-5.25-.47a38.58,38.58,0,0,0-4.12-.08c-1.44.06-1.89.36-1.64,1.77.65,3.48,3,7,4.81,9.94.2.31-.86.6-1,.33Z"/></g></g></g></g><path id="_Caminho_composto_" data-name="&lt;Caminho composto&gt;" class="cls-1" d="M191.2,40.45c4.93-3.76,9.47-7.89,12.16-13.64a10.93,10.93,0,0,0,1-7.13l-3.73,2.72-2.46-5.84-.9-.39-4.42,5.53a9.84,9.84,0,0,0-.4-2.59c-.67-1.2-1.52-2.31-2.29-3.45A14.53,14.53,0,0,0,188,18.06c-4.09,7.13-8.15,14.29-12.12,21.49a9.08,9.08,0,0,1-5,4.12c-7.75,3.07-15.13,6.74-21.31,12.54a12.78,12.78,0,0,1-5.64,3.21A8.67,8.67,0,0,0,137,68.93a29.17,29.17,0,0,1-.58,8.66,6.34,6.34,0,0,0,.4,2.2c.74-.29,1.74-.36,2.18-.9A9.64,9.64,0,0,1,146.58,75a4.92,4.92,0,0,0,2-.65c2.8-1.45,5.76-1.43,8.8-1.23,2.57.16,5.15.18,7.73.15,1.39,0,2.78-.24,4.32-.39,0,2.74-.68,4.72-2.72,6.43a7,7,0,0,1-3.95,1.58,3,3,0,0,1,.28.62c0,.06,0,.13.06.19s.19.17.27.26a4.86,4.86,0,0,1,.93.1,2.38,2.38,0,0,1,.4.13,3.9,3.9,0,0,1,1.5.2l6.69-.11a2.82,2.82,0,0,1,.76-.33,2.47,2.47,0,0,1,.43-.14,4.2,4.2,0,0,1,1.66,0l.18-.16a3.68,3.68,0,0,1,.37-.24,3.4,3.4,0,0,1,.49-.77H176a15.24,15.24,0,0,1-1.7-.22,17.17,17.17,0,0,0,3.3-12c0-.48.89-1.29,1.52-1.51,8.72-3,15.19-8.44,18.35-17.33a11.74,11.74,0,0,0,.26-2.64l-2.83.59-.49-2.26L188.79,48l-.2-2.28-2.68.94-.52-.36a11.59,11.59,0,0,1,1.67-2.83A50.2,50.2,0,0,1,191.2,40.45Zm-20,38c1.62-2.35.49-5.91,3.44-8C175.38,74.53,174,77.82,171.15,78.47Z"/><g id="_Grupo_17" data-name="&lt;Grupo&gt;"><g id="_Grupo_18" data-name="&lt;Grupo&gt;"><path id="_Caminho_composto_2" data-name="&lt;Caminho composto&gt;" class="cls-1" d="M106.49,360.2a5.63,5.63,0,0,1-4.21.24q-5.84-2.37-10.83-4.7a27.24,27.24,0,0,1-13,15c-7.82,4.23-20.56,3.9-28.37.09-14.2-6.92-24.89-21.35-33.57-34.52a114.67,114.67,0,0,1-7.08-13.37A117.49,117.49,0,0,1,0,288.34a9,9,0,0,1,5.07-8.12,13.76,13.76,0,0,1,5.26-1.65,31.91,31.91,0,0,1,.5-9.74c1.84-9,7.09-15.74,15.63-19.95,6.62-3.26,12.94-4.36,18.83-3.33s11.57,4.43,17,10.18c6.88,7.29,11.66,16.32,16.07,25a167,167,0,0,1,8.62,21,142.89,142.89,0,0,1,5.62,21.6,84.33,84.33,0,0,1,1.27,20c2.74,1.09,6.26,2.39,10.54,3.93,3.77,1.36,6,2.81,6.64,4.29a6.39,6.39,0,0,1,.16,3.24q-.29,2.22-3.11,4.47A9.17,9.17,0,0,1,106.49,360.2Zm-29.44-1.57c2.64-1.31,4.38-3.87,5.24-7.69a161.62,161.62,0,0,1-16-10.75,4.07,4.07,0,0,1-.95-1.16,3.92,3.92,0,0,1-.19-2.63,4.56,4.56,0,0,1,2.72-3.06c1.89-.93,7,.63,15.09,4.86a96.41,96.41,0,0,0-2.63-15.31,212.16,212.16,0,0,0-13-35.23q-1.76-3.49-4.36-8.16a76,76,0,0,0-6.1-9.24,45.24,45.24,0,0,0-7.73-7.93,21.3,21.3,0,0,0-9.2-4.35,16.28,16.28,0,0,0-10.51,1.76,17.73,17.73,0,0,0-8.16,7.86,22.62,22.62,0,0,0,.54,21.49c4.1,7.09,9.69,10.72,16.76,11a3.18,3.18,0,0,1,2.91,1.49,5.2,5.2,0,0,1,.37,2.31,2.7,2.7,0,0,1-1.68,2.5,4.67,4.67,0,0,1-2.23.52,25.31,25.31,0,0,1-14-4.6c4,10.11,8.13,20.1,13.54,29.51a77.4,77.4,0,0,0,13.64,18q7.24,6.8,14,9.09C69.63,360.43,73.59,360.35,77.05,358.62Z"/><path id="_Caminho_composto_3" data-name="&lt;Caminho composto&gt;" class="cls-1" d="M162,316.41a11.46,11.46,0,0,1-8.62,0,20.65,20.65,0,0,1-7.54-5.39,48.31,48.31,0,0,1-6.44-9,52.65,52.65,0,0,1-.39,9.14,23.22,23.22,0,0,1-2.76,8.54,13.18,13.18,0,0,1-7,5.74c-3.79,1.51-7,1.86-9.71,1a17.54,17.54,0,0,1-7.56-5,44.8,44.8,0,0,1-6.6-9.35q-3.07-5.62-6.14-12.34c-5.6-12.26-8-20-7.08-23.27.74-2.57,3.07-4.69,7-6.3,3.16-1.29,5.56-1.8,7.21-1.55a4.57,4.57,0,0,1,3.61,3,18.26,18.26,0,0,1,.89,2.65c2.87,10.94,5.86,21.81,10.36,32.25a22.16,22.16,0,0,0,3.64,6.31,3.59,3.59,0,0,0,4.27.9c2.84-1.11,3.41-8,1.81-20.69s-3.23-21.26-5-25.65a7.44,7.44,0,0,1-.48-5.47,8.11,8.11,0,0,1,3.15-3.82,23.29,23.29,0,0,1,5.4-2.67c3.23-1.14,5.66-1.54,7.28-1.21a4.6,4.6,0,0,1,3.44,3.17c.3.78,1,4.16,2.32,9.67a269.25,269.25,0,0,0,8.83,29.61c2.54,6.88,4.47,10.1,5.84,9.64,2.17-.74,3.76-6.06,4.89-15.94A218,218,0,0,0,168,267.93a2.67,2.67,0,0,1,2.2-2.73,3.81,3.81,0,0,1,3.23.25,2.75,2.75,0,0,1,1.16,1.47c.22.66.11,5.26-.24,13.78C173.49,291.68,173.29,311.62,162,316.41Z"/><path id="_Caminho_composto_4" data-name="&lt;Caminho composto&gt;" class="cls-1" d="M200.42,304.34c-7.41,2.11-13.5,1.55-18.41-1.76s-8.72-8.78-11.38-16.47a50.56,50.56,0,0,1-2.56-13.26,47.2,47.2,0,0,1,1.2-14.25,31.1,31.1,0,0,1,6-12.33,22,22,0,0,1,11.62-7.39c8.91-2.48,14.72.69,17.27,9.3a30.61,30.61,0,0,1,.82,13.19,27.91,27.91,0,0,1-5,12.48,21,21,0,0,1-11,7.78,40.1,40.1,0,0,0,2.89,6.74,16.78,16.78,0,0,0,4.42,5.43,6.26,6.26,0,0,0,5.83,1.11,12.67,12.67,0,0,0,6.64-4.85c3.5-4.69,6.27-11,8.22-19a93.26,93.26,0,0,0,2.48-17.33,2.68,2.68,0,0,1,2.4-2.58,3.86,3.86,0,0,1,3.23.46,2.75,2.75,0,0,1,1.06,1.54,63.53,63.53,0,0,1-.55,8.29,77.15,77.15,0,0,1-6.72,25.38C214.43,296.27,208.31,302.1,200.42,304.34Zm-12.87-28.12a14.53,14.53,0,0,0,7.54-6.28,23.79,23.79,0,0,0,3.24-9.78,22.57,22.57,0,0,0-.7-9.05c-1.21-4-3.16-5.58-5.83-4.85-3.75,1-5.8,5.56-6,13.49A62.64,62.64,0,0,0,187.56,276.22Z"/><path id="_Caminho_composto_5" data-name="&lt;Caminho composto&gt;" class="cls-1" d="M305.16,285.37c-5.75.77-10.15-1-13.3-5.27s-5.58-11-7.28-20.17c-.65-3.52-1.21-6.89-1.57-10.05-.29-2.52-.65-5.12-1.15-7.72l-.69-3.14q-.79-3.69-2.22-3.46c-1.74.28-3.05,2.07-3.93,5.37a60.88,60.88,0,0,0-1.72,11.81c-.27,4.57-.37,9.08-.25,13.48.06,2.15.06,4.45,0,6.87a19.09,19.09,0,0,1-1.26,6.45,5,5,0,0,1-3.95,3.34c-4.5.83-7.6-2.77-9.38-10.85-1.63-7.52-2.45-11.28-4.13-18.79a32.31,32.31,0,0,0-2.32-6.93c-.93-1.9-1.86-2.76-2.8-2.57-1.87.37-3.28,2.43-4.22,6.16a69.8,69.8,0,0,0-1.83,12.92,136.08,136.08,0,0,0-.12,13.89A55.92,55.92,0,0,0,244,286c.69,2.89.59,4.91-.29,6.05a6.33,6.33,0,0,1-3.79,2.27c-3.44.78-5.92-.14-7.47-2.78-5.47-9.9-8.57-21.26-11.48-32.08-2.35-8.73-4-15.27-4.66-19.53a5.56,5.56,0,0,1,3.52-6.71,25.38,25.38,0,0,1,4.65-1.5,34.36,34.36,0,0,1,4.49-.72,7.82,7.82,0,0,1,3.89.54,4.26,4.26,0,0,1,2.29,3.11,32,32,0,0,1,.85,5.31c.34,4.23.87,8.54,1.52,12.86,1.27-8.94,5.37-21,15.25-23a10.11,10.11,0,0,1,7.17.82,12.71,12.71,0,0,1,4.68,4.68,27.23,27.23,0,0,1,2.78,6.55,42.33,42.33,0,0,1,3.2-9.64,23.42,23.42,0,0,1,5.47-7.44,15.41,15.41,0,0,1,8.2-3.74,11.55,11.55,0,0,1,8,1.21,13.14,13.14,0,0,1,4.91,5.63,31.07,31.07,0,0,1,2.58,8.38q1.51,8.87,2.56,18.23.92,8.09,2,14.71c.7,4.41,1.59,6.54,2.7,6.39,2.21-.29,4.74-4.62,7.66-13A188.47,188.47,0,0,0,322,236.06a2.71,2.71,0,0,1,2.75-2.25,4,4,0,0,1,3.19.88,2.74,2.74,0,0,1,.87,1.67,3.27,3.27,0,0,1-.08,1.2c-2.91,12.25-5.55,24.86-10.88,36.2C314.5,280.79,310.22,284.69,305.16,285.37Z"/><path id="_Caminho_composto_6" data-name="&lt;Caminho composto&gt;" class="cls-1" d="M382.12,284a11.9,11.9,0,0,1-8.31-2.76,10.45,10.45,0,0,1-3.83-7.57c-.35-4.87,1.74-9.19,6.38-12.89l2.3-1.76c-1.21-1.86-2.57-3.72-4-5.57-1.91-2.5-3.78-5.1-5.6-7.71a61,61,0,0,1-4.69-7.87,22.64,22.64,0,0,1-2.33-8c-.59-6.39,1-11.28,4.83-14.63A21.9,21.9,0,0,1,381,210a24.8,24.8,0,0,1,3.33.15,10.2,10.2,0,0,1,3.21.83,2.24,2.24,0,0,1,1.45,2c.13,2-1.7,3.18-5.46,3.55-4.73.46-7,2.4-6.71,5.79a23.58,23.58,0,0,0,2.84,9.25c1.65,3.11,3.53,6.34,5.66,9.6,2,3,3.84,6.16,5.54,9.43q1.9-1.5,3.81-3.13a28.41,28.41,0,0,0,8.31-13l.85-2.79c.38-1.3,1.43-2,3.17-2a3.8,3.8,0,0,1,3,1.2,3,3,0,0,1,.71,1.82,5.44,5.44,0,0,1-.35,1.74q-3.92,11.27-10.71,17.5-3,2.81-6,5.16a38.36,38.36,0,0,1,2.46,12,14.41,14.41,0,0,1-3.5,10.4C390.22,282.43,386.7,283.91,382.12,284Zm.07-5.86q3.2-.1,3-4.27a20.28,20.28,0,0,0-2.63-8.64c-2.81,2.45-4.09,5.22-3.91,8.28a6.25,6.25,0,0,0,1.11,3.2A2.8,2.8,0,0,0,382.19,278.19Z"/><path id="_Caminho_composto_7" data-name="&lt;Caminho composto&gt;" class="cls-1" d="M454.53,277.48c-12.75-.32-16.44-18.24-17.12-29.45a78.5,78.5,0,0,1-7.17,15.71c-4.45,7-9.72,10.46-15.93,10.38-3.44,0-6.12-.85-8.07-2.46a13.76,13.76,0,0,1-4.25-6.16,25.74,25.74,0,0,1-1.48-7.66,88,88,0,0,1,.41-11.68,74.46,74.46,0,0,1,2.33-12.63,44.63,44.63,0,0,1,4.87-11.43,25.1,25.1,0,0,1,8.07-8.3A20.51,20.51,0,0,1,428,210.86a15.12,15.12,0,0,1,11.22,5.48,8.06,8.06,0,0,1,1.73-3.28c1.88-2,5.34-2.91,10.37-2.63,3.52.2,6,.77,7.49,1.71a4.6,4.6,0,0,1,2.14,4.27,16.35,16.35,0,0,1-.31,2.78c-.29,1.51-.8,4.79-1.53,9.75a246.38,246.38,0,0,0-2.78,28.47q-.06,2,0,6.32t2,4.43c2.4.16,6-4.12,11-12.8a195.35,195.35,0,0,0,10-20.27,2.91,2.91,0,0,1,3.3-1.65,4.17,4.17,0,0,1,3.06,1.49,2.72,2.72,0,0,1,.56,1.81c0,.74-1.94,4.94-5.61,12.62C475.33,259.45,467,277.79,454.53,277.48Zm-38.3-71.18q-2.18,0-2.35-4.56a10.52,10.52,0,0,1,10.88-10.92c2.62.06,6.35,1.14,11.15,3.3s7.95,3.29,9.48,3.37a4.22,4.22,0,0,0,3.78-1.35,11.49,11.49,0,0,0,1.62-2.64,10.13,10.13,0,0,1,1.11-2.07,1.76,1.76,0,0,1,1.59-.85q2.83.16,2.8,4.78a10.56,10.56,0,0,1-11.55,10.42c-2.81-.13-6.4-1.28-10.81-3.37-4.57-2.16-7.72-3.23-9.35-3.27-2.37-.05-4,1.3-5,4C418.8,205.27,417.68,206.32,416.23,206.3Zm4.21,55.44c1.36,0,3-1.7,4.91-5.19A109.75,109.75,0,0,0,431,244.27q2.81-7.06,4.8-13.12c1.32-4,2.4-7.33,2.14-8.29-.12-.45-1-1.12-1.91-1.64a5.85,5.85,0,0,0-2.81-.84c-4.9-.17-8.82,4-11.68,12.31A71.88,71.88,0,0,0,418,257.24Q418.1,261.7,420.44,261.75Z"/><path id="_Caminho_composto_8" data-name="&lt;Caminho composto&gt;" class="cls-1" d="M498.17,280.3A18.85,18.85,0,0,1,488,276.18c-8.75-7.77-10.57-20.52-9.75-31.6a92,92,0,0,1,1.44-11.77,15.83,15.83,0,0,1,5.76-10,9.28,9.28,0,0,1,7-1.67,17.21,17.21,0,0,1,4.06.86c3.27-5.77,8.25-8.31,14.73-7.44,12.41,1.68,16.46,14.54,14.92,25.54a107.36,107.36,0,0,1-4,18.73c7.24,1,13.18-2.73,17.92-11.4l2.13-4.06c.62-1.19,1.79-1.64,3.49-1.34a4.16,4.16,0,0,1,2.9,1.72,3,3,0,0,1,.42,1.92q-.12.9-2.74,5.53c-5.14,9.93-23.1,11.7-26.47,13.56C516.64,266.46,508.43,281.6,498.17,280.3Zm2.28-7.66c3.72.46,7.16-3.06,10.38-10.6a29,29,0,0,1-14.19-13.66q-.76,4.76-1.05,8.58a51.9,51.9,0,0,0-.07,7.57,14,14,0,0,0,1.41,5.64A4.44,4.44,0,0,0,500.45,272.65Zm12.7-17a75,75,0,0,0,3.24-16,43.81,43.81,0,0,0-.14-11.43c-.78-4.32-2.9-6.73-6.25-7.16a4.77,4.77,0,0,0-4.61,1.85,14.66,14.66,0,0,0-2.62,5.44,32.91,32.91,0,0,0-1.06,6,21.05,21.05,0,0,0,2.44,12.1A23.77,23.77,0,0,0,513.15,255.68Z"/></g></g><g id="_Grupo_19" data-name="&lt;Grupo&gt;"><path id="_Caminho_15" data-name="&lt;Caminho&gt;" class="cls-1" d="M376.76,58.62a45.35,45.35,0,0,0,6.29,1c10.73.9,16.27-2.58,16.54-10.76q.14-4.2-1.8-6.34a9.69,9.69,0,0,0-5.06-2.9,43.14,43.14,0,0,0-6.45-1,35.14,35.14,0,0,0-8.32.2,9.65,9.65,0,0,0-6,3.05c-1.45,1.64-2.17,4.24-2.17,7.78q0,4.2,1.95,6.27A9.51,9.51,0,0,0,376.76,58.62Z"/><path id="_Caminho_16" data-name="&lt;Caminho&gt;" class="cls-1" d="M473.67,74.08a7.28,7.28,0,0,0,2.65,1.05c2.76.56,6.85.13,12.32-1.22A165.23,165.23,0,0,0,504.77,69c8.39-3.13,12.87-5.81,13.28-8.23a8,8,0,0,0-1.5-6,21.41,21.41,0,0,0-4.88-5.12,14,14,0,0,0-4.89-2.62c-3.59-.83-6.36-.84-8.32-.06S490.58,52,481,59.83c-3.49,2.75-5.23,4.13-8.68,6.91a4.57,4.57,0,0,0-1.67,2.69C470.45,71.13,471.46,72.67,473.67,74.08Z"/><path id="_Caminho_composto_9" data-name="&lt;Caminho composto&gt;" class="cls-1" d="M548.53,130.24a6.83,6.83,0,0,0-4.27-3.14c-2.47-.76-4.29-.31-5.46,1.33-6.52,9-13.14,17.83-20.51,26.13-9.77,11-16.25,16.16-19.79,15.23-1.93-.5-2.55-2.82-1.89-7s1.18-7.19,1.58-9.12a394.5,394.5,0,0,1,11.18-40.32c2.25-7,3.89-11.56,4.7-13.65a22.25,22.25,0,0,0,1.14-3.92,6.79,6.79,0,0,0-2.29-6.8c-2-1.78-5.78-3.35-11.18-4.62-7.72-1.83-13.28-1.46-16.63.95a11.22,11.22,0,0,0-3.4,4.28,24.6,24.6,0,0,0-16.17-10.85c-7-1.33-13.33-.86-18.81,1.37a36.52,36.52,0,0,0-14.07,10.17,61.57,61.57,0,0,0-9.66,15.5c-.14.32-.26.65-.4,1a283.32,283.32,0,0,1-14.53,25.39c-7.75,12.33-13.51,18.42-17.15,18-2.24-.24-3-5.7-2.37-16.44q.57-9.78,2.21-21.67T394,90.88q1.62-9.32,2.25-12.24a23.89,23.89,0,0,0,.55-4,6.78,6.78,0,0,0-3.11-6.36c-2.19-1.44-6-2.43-11.54-2.89-7.74-.64-13.62.61-15.86,3.44-5.32,6.73-6,18.59-6,29.51a139.85,139.85,0,0,1-6.65,14.94c-5.92,11.28-15,20.9-26.75,26.15A97.24,97.24,0,0,0,338.2,105a117.93,117.93,0,0,0,1.22-19.15c-.17-7.56-2.14-13.33-5.94-17.26a18.42,18.42,0,0,0-13.56-6,26.79,26.79,0,0,0-16.1,4.77,40.23,40.23,0,0,0-11.27,12.55,76.38,76.38,0,0,0-7.29,16.94c-.88,2.81-1.32,4.22-2.19,7-.8-29.24-1.16-58.5-.09-87.64a61.94,61.94,0,0,0-.23-9.19,6.47,6.47,0,0,0-3-5.19A14.14,14.14,0,0,0,273.3.11a67.46,67.46,0,0,0-7.8,0,64.07,64.07,0,0,0-8.82,1.12,15.22,15.22,0,0,0-6.92,3.06,7.08,7.08,0,0,0-2.4,6.18c.75,13.73,1.94,27.51,3.18,41.18,1.4,15.53,3,31.2,5,46.64l0,.21c-2.71,10.49-5.55,20.9-9.23,31.09-5,13.76-9,20.89-12.42,21.29-1.88.22-3.22-1.73-4-5.84s-1.38-7.14-1.68-9.09a415.47,415.47,0,0,1-3.73-41.67C224.07,87,224,82.11,224,79.87a23.29,23.29,0,0,0-.32-4.07,6.73,6.73,0,0,0-4.36-5.54c-2.43-.94-6.3-1.08-11.56-.36-7.52,1-12.37,3.33-14.54,6.77a11.54,11.54,0,0,0-1.57,5.21,22.91,22.91,0,0,0-18.19-4.45c-6.76,1.23-12.25,3.89-16.39,7.9a36.28,36.28,0,0,0-9.12,14.47,63.31,63.31,0,0,0-3.31,17.9,106.94,106.94,0,0,0,.82,18.76,129.63,129.63,0,0,0,3.25,16.78c1,3.68,9.32,16.19,12.56,17.86s7.27,2,12.11,1c9.82-2.05,16.26-10.61,19.39-19.67a118.59,118.59,0,0,0,5.65-24.61c3.8,14.67,13.25,40.56,32.55,37.51,15.93-2.52,23.68-24.55,28.24-40.29a165,165,0,0,0,7.58,30.22c1.62,4.32,5.06,6.29,10.36,6,4.48-.24,6.92-2.54,7.33-6.94s.59-8,.65-10.69A70.24,70.24,0,0,1,287,129.85c3-13.33,6.92-26.79,13-39.36,2.66-5.43,5.11-8.15,7.28-8.17a3.32,3.32,0,0,1,3,1.81,10.08,10.08,0,0,1,1.27,4.69c0,13.31-.94,24.51-4.2,37.06-2.21,8.5-5.63,14.49-9.46,17.5a23.59,23.59,0,0,0-7-1.22c-3.61.12-5.27,2-5,5.7a11.92,11.92,0,0,0,4,8.06c2.41,2.26,5.58,3.32,9.57,3.23a25.61,25.61,0,0,0,15.65-5.58,67.19,67.19,0,0,0,45.58-31,96.2,96.2,0,0,0,4.17,22.49c3,9.26,10.11,17.91,20.2,18.57,11.71.76,21.46-9.07,29-20a37.67,37.67,0,0,0,.88,8.28,20.54,20.54,0,0,0,5.11,9.85c2.57,2.75,6.39,4.52,11.5,5.36,10.16,1.68,19.57-3.74,26.05-11.21A114.27,114.27,0,0,0,471.91,135c-.75,16.11-1.67,42.71,18.6,47.17,18.85,4.14,36.6-19.73,46.48-32.73,7.61-9.91,11.64-15.33,11.91-16.39A3.9,3.9,0,0,0,548.53,130.24ZM191.16,104.07q-1.07,9.27-3,20.22a167.58,167.58,0,0,1-4.48,19.29c-1.69,5.57-3.47,8.53-5.41,8.91-2.24.43-3.84-1.46-4.82-5.7-2.32-12.76-3.59-23.73-2.51-36.19s6-19.95,13.24-21.18a8.9,8.9,0,0,1,4.38.35c1.45.48,3,1.18,3.28,1.79C192.47,92.85,191.87,97.89,191.16,104.07Zm282.14,6.08q-4.36,8.27-10.2,17.76a161.63,161.63,0,0,1-11.3,16.36c-3.65,4.57-6.46,6.69-8.49,6.33-2.34-.42-3.23-2.77-2.67-7.09,2.32-12.83,5-23.45,10.53-34.71s13-16.42,20.53-14.91a9.67,9.67,0,0,1,4.15,1.94c1.24,1,2.49,2.2,2.57,2.88C478.58,100.13,476.21,104.64,473.3,110.15Z"/><path id="_Caminho_17" data-name="&lt;Caminho&gt;" class="cls-1" d="M126.46,133.37c-9.91-5.54-21-8.9-32-11.37q-10.9-2.55-21.09-5.62A70.62,70.62,0,0,1,55,108,33,33,0,0,1,42.65,93a29.58,29.58,0,0,1-1.15-19.69A46.08,46.08,0,0,1,52.41,53.69,43.18,43.18,0,0,1,72.06,41.33c5.32-1.6,9.76-1.34,13.26.74a16.87,16.87,0,0,1,7.39,9.22,34.31,34.31,0,0,1,1.55,13.24A51.59,51.59,0,0,1,91,79.8a4.74,4.74,0,0,0-.42,3c.64,1.8,3.47,1.95,8.52.52a18.85,18.85,0,0,0,11.38-8.4,29.51,29.51,0,0,0,4.09-13.14,34.68,34.68,0,0,0-1.43-13.7c-3.21-9.86-9.37-16.3-18.41-18.89C84.08,26.13,72.38,27.71,61.94,31,49.13,35,35.83,41.56,27.22,51.28,20,59.47,13.61,69.41,11.49,80.71,9.73,90,11.55,103,15.83,111.58c3.25,6.51,7.13,12,11.8,16a53.37,53.37,0,0,0,15.26,9.15A96,96,0,0,0,60,141.6c5.92,1.12,11.84,2.13,17.73,3a160.5,160.5,0,0,1,19.49,4,46.5,46.5,0,0,1,15.94,7.7c4.51,3.43,7.71,8.32,9.68,14.61a32.37,32.37,0,0,1,.19,18.42l-.09-.06c-4,11.53-20.21,21.08-40.25,22.65-23.86,1.87-44.11-8.26-45.24-22.63a18.55,18.55,0,0,1,4.26-12.83,52,52,0,0,1,16.84-15.84c2.05-1.23,2.9-2.38,2.52-3.47-.51-1.48-2.47-2.77-5.9-3.85a16.62,16.62,0,0,0-10.51.19,32.64,32.64,0,0,0-12.86,8.43,44.7,44.7,0,0,0-9.06,13.2,34.36,34.36,0,0,0-2.85,15.1,42,42,0,0,0,3.23,15,27.18,27.18,0,0,0,8.44,11.29l0,0c9,8.32,26.74,14,47.17,14,19.5,0,36.55-5.16,45.89-12.87l0,0c6.16-4.78,10.78-11.3,14.57-17.85A63.08,63.08,0,0,0,147,179.3a46.52,46.52,0,0,0-.73-20.66A41.66,41.66,0,0,0,126.46,133.37Z"/></g><g id="_Grupo_20" data-name="&lt;Grupo&gt;"><path id="_Caminho_18" data-name="&lt;Caminho&gt;" class="cls-1" d="M583.68,151.4s-31.86-23.81-57.17,20.48C526.51,171.88,572.44,194.19,583.68,151.4Z"/><g id="_Grupo_21" data-name="&lt;Grupo&gt;"><g id="_Grupo_22" data-name="&lt;Grupo&gt;"><path id="_Caminho_19" data-name="&lt;Caminho&gt;" class="cls-1" d="M581.89,151.78c-7,3.39-14.07,6.55-21.21,9.56-5.85,2.47-11.77,4.8-17.79,6.82-4.54,1.53-9.34,3.1-14.16,3.31-.13,0,.21-.77.44-.79,4.61-.2,9.17-1.69,13.53-3.1,6-2,11.93-4.32,17.77-6.76,7.33-3.06,14.6-6.31,21.76-9.78.21-.1-.15.65-.34.74Z"/></g><g id="_Grupo_23" data-name="&lt;Grupo&gt;"><path id="_Caminho_20" data-name="&lt;Caminho&gt;" class="cls-1" d="M564.57,148.76q3.51.8,7,1.78c1.32.37,6,1.14,6.37,2.71.54,2.07-1.41,5.22-2.26,7a36,36,0,0,1-7,9.91c-.44.42-.3-.38-.06-.6,2-1.9,11.7-14.3,7.62-16.4-3.64-1.87-8.1-2.64-12.07-3.54-.34-.08.11-.88.39-.81Z"/></g><g id="_Grupo_24" data-name="&lt;Grupo&gt;"><path id="_Caminho_21" data-name="&lt;Caminho&gt;" class="cls-1" d="M551,151.25q4.67,1.15,9.28,2.48c2.49.72,7.28,1.39,9.07,3.51,1.14,1.36-3,6-3.6,6.83-3.14,4-7.06,8.23-12,9.85-.54.18-.4-.66,0-.79,4.39-1.44,7.84-5.07,10.76-8.51a36,36,0,0,0,3.48-4.87c.82-1.39,1-1.91-.46-2.62-5.18-2.51-11.29-3.68-16.86-5-.45-.11,0-.93.35-.84Z"/></g><g id="_Grupo_25" data-name="&lt;Grupo&gt;"><path id="_Caminho_22" data-name="&lt;Caminho&gt;" class="cls-1" d="M543.26,157c2,.55,14.33,3.29,13.65,6s-4.23,5.07-6.11,6.75c-2.48,2.2-5.65,5.26-9,6-.46.11-.14-.75.2-.83,2.83-.65,5.44-3.15,7.6-5,.81-.67,7.24-5.66,6.66-7.08-.73-1.75-5.75-2.71-7.29-3.22-2-.67-4-1.28-6.06-1.85-.42-.12,0-.93.36-.83Z"/></g><g id="_Grupo_26" data-name="&lt;Grupo&gt;"><path id="_Caminho_23" data-name="&lt;Caminho&gt;" class="cls-1" d="M535.1,162.53c1.51.34,3,.76,4.48,1.21s4.57,1.12,5.29,2.75c.49,1.11-1.81,3-2.42,3.56a61.37,61.37,0,0,1-4.89,4.24c-.37.3-.05-.55.13-.7,1.16-.91,2.27-1.87,3.37-2.85a33,33,0,0,0,2.47-2.4c.81-.89.9-1.34-.09-2-2.45-1.66-5.9-2.33-8.75-3-.3-.07.15-.87.41-.8Z"/></g></g></g><path id="_Caminho_24" data-name="&lt;Caminho&gt;" class="cls-1" d="M103.63,170.72c-1.42-5-3.21-9.86-7.35-13.37-3-2.54-6.55-4.06-10.29-2.39a32.43,32.43,0,0,1-9.79,2.66c-.09,0-.15.22-.41.63,1.35,1.38,2.74,2.83,4.16,4.26,3.46,3.49,3.72,9.14.11,12.41-5.87,5.33-8.1,12-8.56,19.67a108.09,108.09,0,0,1-1.21,11.06,6.29,6.29,0,0,1-4.06,4.62,3.32,3.32,0,0,1-.57.65,3.62,3.62,0,0,1-.62.87h.09c-1,.85-1.49,1.33-2,1.77-2,1.59-4.11,3-6,4.76-2.25,2.07-4.29,4.36-3.75,8.28l4.44-3.21c-.84,2.88-1.87,5.43-.09,8.36l4.57-3.9,1.11,5c.77-.83,1.13-1.17,1.45-1.56q6-7.39,12-14.79c1.09-1.36,2.15-2.45,4.2-2a2.72,2.72,0,0,0,2.25-1.2c.73-1.35,1.71-1.52,3-1.53l5.3-.06a3.19,3.19,0,0,1,.89-.64,3.31,3.31,0,0,1,.79-.72l.1-.26h0a19.46,19.46,0,0,1,1.7-3.91c1.53-2,3.59-3.69,4.93-5.81C105.85,191.06,106.56,181.1,103.63,170.72Z"/></g></g></g></svg>